Catch.44.2011.PL.BRRip.XViD-RLF
~~~~~~~~~~~~~~~~~~~~~~~~~~~~~~~

GENERAL:

Complete name: rlf-catch44-pl.avi
Format: AVI
Format/Info: Audio Video Interleave
File size: 697 MiB
Duration: 1h 33mn
Overall bit rate: 1 039 Kbps
Language: Polish
Subs: N/A 
Encoder: Ralf

Video:

Format: MPEG-4 Visual
Format profile: Advanced Simple@L5
Format settings, BVOP: 2
Format settings, QPel: No
Format settings, GMC: No warppoints
Format settings, Matrix: H.263
Muxing mode: Packed bitstream
Codec ID: XVID
Duration: 1h 33mn
Bit rate: 900 Kbps
Width: 688 pixels
Height: 288 pixels
Display aspect ratio: 2.35:1
Frame rate: 23.976 fps
Color space: YUV
Chroma subsampling: 4:2:0
Bit depth: 8 bits
Scan type: Progressive
Bits/(Pixel*Frame): 0.189
Stream size: 604 MiB (86%)

Audio:

Format: AC-3
Format/Info: Audio Coding 3
Duration: 1h 33mn
Bit rate mode: Constant
Bit rate: 128 Kbps
Channel(s): 2 channels
Channel positions: Front: L R
Sampling rate: 48.0 KHz
Bit depth: 16 bits
Stream size: 85.9 MiB (12%)
Interleave, duration: 32 ms (0.77 video frame)

MOVIE INFO:

Dla Tes i jej dwoch towarzyszek Kary oraz Dawn zadanie wydawalo sie
dosc latwe: przechwycic transport narkotykow dla szefa mafii, Mela.
Jednak gdy uruchamia sie lancuch wydarzen i zamieszanych w niego 
dziwnych nieznajomych, dziewczyny znajduja sie w centrum strzelaniny.
Zdaja sobie sprawe, ze nikt nie jest tym za kogo sie podaje, a 
zadanie jest czyms wiecej niz zwykla eliminacja konkurencji.
 
http://www.imdb.com/title/tt1886493/ 
http://www.filmweb.pl/film/Catch+.44-2011-491087

SOURCE:

HDChina's 1080p.BluRay.x264 / DS-Vego's AC3 5.1 (THX)

SCREENS:
 
http://www.postimg.com/54000/photo-53575.jpg 
http://www.postimg.com/54000/photo-53572.jpg 
http://www.postimg.com/54000/photo-53573.jpg 
http://www.postimg.com/54000/photo-53574.jpg